<mxfile host="app.diagrams.net" modified="2021-05-24T11:35:06.873Z" agent="5.0 (Macintosh; Intel Mac OS X 10_15_7) AppleWebKit/605.1.15 (KHTML, like Gecko) Version/14.1 Safari/605.1.15" etag="F0cvQBdbEaGtVJkBhFk2" version="14.7.0" type="github">
  <diagram name="Page-1" id="2a216829-ef6e-dabb-86c1-c78162f3ba2b">
    <mxGraphModel dx="1113" dy="726" grid="1" gridSize="10" guides="1" tooltips="1" connect="1" arrows="1" fold="1" page="1" pageScale="1" pageWidth="850" pageHeight="1100" background="none" math="0" shadow="0">
      <root>
        <mxCell id="0" />
        <mxCell id="1" parent="0" />
        <mxCell id="4FXNH1IwVZREP2AspMkZ-1" value="Resources" style="rounded=1;whiteSpace=wrap;html=1;" vertex="1" parent="1">
          <mxGeometry x="400" y="440" width="120" height="60" as="geometry" />
        </mxCell>
        <mxCell id="4FXNH1IwVZREP2AspMkZ-4" value="" style="edgeStyle=orthogonalEdgeStyle;rounded=0;orthogonalLoop=1;jettySize=auto;html=1;" edge="1" parent="1" source="4FXNH1IwVZREP2AspMkZ-2" target="4FXNH1IwVZREP2AspMkZ-3">
          <mxGeometry relative="1" as="geometry" />
        </mxCell>
        <mxCell id="4FXNH1IwVZREP2AspMkZ-2" value="App.py" style="rounded=1;whiteSpace=wrap;html=1;" vertex="1" parent="1">
          <mxGeometry x="400" y="440" width="120" height="60" as="geometry" />
        </mxCell>
        <mxCell id="4FXNH1IwVZREP2AspMkZ-30" style="edgeStyle=elbowEdgeStyle;rounded=0;orthogonalLoop=1;jettySize=auto;html=1;exitX=0.25;exitY=0;exitDx=0;exitDy=0;fillColor=#dae8fc;strokeColor=#6c8ebf;" edge="1" parent="1" source="4FXNH1IwVZREP2AspMkZ-3" target="4FXNH1IwVZREP2AspMkZ-2">
          <mxGeometry relative="1" as="geometry" />
        </mxCell>
        <mxCell id="4FXNH1IwVZREP2AspMkZ-3" value="Resources" style="whiteSpace=wrap;html=1;rounded=1;" vertex="1" parent="1">
          <mxGeometry x="400" y="590" width="120" height="60" as="geometry" />
        </mxCell>
        <mxCell id="4FXNH1IwVZREP2AspMkZ-14" style="edgeStyle=orthogonalEdgeStyle;rounded=0;orthogonalLoop=1;jettySize=auto;html=1;entryX=1;entryY=0.5;entryDx=0;entryDy=0;" edge="1" parent="1" source="4FXNH1IwVZREP2AspMkZ-5" target="4FXNH1IwVZREP2AspMkZ-8">
          <mxGeometry relative="1" as="geometry" />
        </mxCell>
        <mxCell id="4FXNH1IwVZREP2AspMkZ-5" value="Logic" style="whiteSpace=wrap;html=1;rounded=1;" vertex="1" parent="1">
          <mxGeometry x="510" y="700" width="120" height="60" as="geometry" />
        </mxCell>
        <mxCell id="4FXNH1IwVZREP2AspMkZ-10" style="edgeStyle=orthogonalEdgeStyle;rounded=0;orthogonalLoop=1;jettySize=auto;html=1;entryX=0;entryY=0.5;entryDx=0;entryDy=0;" edge="1" parent="1" source="4FXNH1IwVZREP2AspMkZ-8" target="4FXNH1IwVZREP2AspMkZ-5">
          <mxGeometry relative="1" as="geometry" />
        </mxCell>
        <mxCell id="4FXNH1IwVZREP2AspMkZ-17" value="" style="edgeStyle=orthogonalEdgeStyle;rounded=0;orthogonalLoop=1;jettySize=auto;html=1;" edge="1" parent="1" source="4FXNH1IwVZREP2AspMkZ-8" target="4FXNH1IwVZREP2AspMkZ-16">
          <mxGeometry relative="1" as="geometry" />
        </mxCell>
        <mxCell id="4FXNH1IwVZREP2AspMkZ-29" style="edgeStyle=elbowEdgeStyle;rounded=0;orthogonalLoop=1;jettySize=auto;html=1;exitX=0;exitY=0;exitDx=0;exitDy=0;entryX=0;entryY=0.25;entryDx=0;entryDy=0;fillColor=#dae8fc;strokeColor=#6c8ebf;" edge="1" parent="1" source="4FXNH1IwVZREP2AspMkZ-8" target="4FXNH1IwVZREP2AspMkZ-3">
          <mxGeometry relative="1" as="geometry">
            <Array as="points">
              <mxPoint x="290" y="650" />
            </Array>
          </mxGeometry>
        </mxCell>
        <mxCell id="4FXNH1IwVZREP2AspMkZ-33" value="" style="edgeStyle=elbowEdgeStyle;rounded=0;orthogonalLoop=1;jettySize=auto;html=1;" edge="1" parent="1" source="4FXNH1IwVZREP2AspMkZ-8" target="4FXNH1IwVZREP2AspMkZ-32">
          <mxGeometry relative="1" as="geometry" />
        </mxCell>
        <mxCell id="4FXNH1IwVZREP2AspMkZ-8" value="Business" style="whiteSpace=wrap;html=1;rounded=1;" vertex="1" parent="1">
          <mxGeometry x="260" y="700" width="120" height="60" as="geometry" />
        </mxCell>
        <mxCell id="4FXNH1IwVZREP2AspMkZ-13" style="edgeStyle=orthogonalEdgeStyle;rounded=0;orthogonalLoop=1;jettySize=auto;html=1;entryX=1;entryY=0.5;entryDx=0;entryDy=0;" edge="1" parent="1" source="4FXNH1IwVZREP2AspMkZ-11" target="4FXNH1IwVZREP2AspMkZ-5">
          <mxGeometry relative="1" as="geometry" />
        </mxCell>
        <mxCell id="4FXNH1IwVZREP2AspMkZ-11" value="Unittest" style="whiteSpace=wrap;html=1;rounded=1;" vertex="1" parent="1">
          <mxGeometry x="710" y="700" width="120" height="60" as="geometry" />
        </mxCell>
        <mxCell id="4FXNH1IwVZREP2AspMkZ-27" style="edgeStyle=elbowEdgeStyle;rounded=0;orthogonalLoop=1;jettySize=auto;html=1;exitX=0;exitY=0.5;exitDx=0;exitDy=0;entryX=0.25;entryY=1;entryDx=0;entryDy=0;fillColor=#dae8fc;strokeColor=#6c8ebf;" edge="1" parent="1" source="4FXNH1IwVZREP2AspMkZ-16" target="4FXNH1IwVZREP2AspMkZ-8">
          <mxGeometry relative="1" as="geometry">
            <mxPoint x="320" y="770" as="targetPoint" />
            <Array as="points">
              <mxPoint x="290" y="820" />
            </Array>
          </mxGeometry>
        </mxCell>
        <mxCell id="4FXNH1IwVZREP2AspMkZ-16" value="Clients" style="whiteSpace=wrap;html=1;rounded=1;" vertex="1" parent="1">
          <mxGeometry x="390" y="820" width="120" height="60" as="geometry" />
        </mxCell>
        <mxCell id="4FXNH1IwVZREP2AspMkZ-9" value="" style="edgeStyle=orthogonalEdgeStyle;rounded=0;orthogonalLoop=1;jettySize=auto;html=1;" edge="1" parent="1" source="4FXNH1IwVZREP2AspMkZ-3" target="4FXNH1IwVZREP2AspMkZ-8">
          <mxGeometry relative="1" as="geometry" />
        </mxCell>
        <mxCell id="4FXNH1IwVZREP2AspMkZ-35" style="edgeStyle=elbowEdgeStyle;rounded=0;orthogonalLoop=1;jettySize=auto;html=1;" edge="1" parent="1" source="4FXNH1IwVZREP2AspMkZ-32">
          <mxGeometry relative="1" as="geometry">
            <mxPoint x="260" y="730" as="targetPoint" />
          </mxGeometry>
        </mxCell>
        <mxCell id="4FXNH1IwVZREP2AspMkZ-32" value="Models" style="whiteSpace=wrap;html=1;rounded=1;" vertex="1" parent="1">
          <mxGeometry x="60" y="700" width="120" height="60" as="geometry" />
        </mxCell>
      </root>
    </mxGraphModel>
  </diagram>
</mxfile>
